<svg width="292" height="55" viewBox="0 0 292 55" fill="none" xmlns="http://www.w3.org/2000/svg">
<g clip-path="url(#clip0)">
<rect width="292" height="55" fill="white"/>
<path d="M56 54H62.88V32.08C62.88 22.8 56.96 16.16 46.96 16.16C40.56 16.16 35.92 18.96 32.8 23.04C30.16 18.88 25.52 16.16 19.12 16.16C13.6 16.16 9.6 18.4 7.28 21.2V17.2H0.4V54H7.28V34.48C7.28 26.96 12.8 22.56 18.56 22.56C25.04 22.56 28.16 26.56 28.16 32.56V54H35.04V34.72C35.04 26.96 40.64 22.56 46.4 22.56C52.88 22.56 56 26.56 56 32.56V54ZM82.3731 16.16C73.9731 16.16 66.5331 20.32 64.4531 27.92H72.0531C73.5731 24.4 77.8931 22.56 82.3731 22.56C88.4531 22.56 93.0931 24.8 93.0931 30.88H81.4931C72.9331 30.88 65.3331 33.84 65.3331 42.8C65.3331 51.04 71.6531 55.04 80.2931 55.04C86.0531 55.04 90.2131 53.12 93.0931 50V54H99.9731V30.56C99.9731 21.36 92.8531 16.16 82.3731 16.16ZM93.0931 39.28C93.0931 44.8 88.4531 48.64 81.0131 48.64C75.6531 48.64 72.2131 46.88 72.2131 42.8C72.2131 38.72 75.6531 36.88 81.4131 36.88H93.0931V39.28ZM138.27 17.2H130.03L119.31 30.4L108.67 17.2H100.11L114.99 35.6L99.95 54H107.87L118.99 40.48L130.03 54H138.43L123.31 35.36L138.27 17.2ZM139.429 17.2V54H146.309V17.2H139.429ZM138.869 8.8H146.869V0.479998H138.869V8.8ZM207.669 54H214.549V32.08C214.549 22.8 208.629 16.16 198.629 16.16C192.229 16.16 187.589 18.96 184.469 23.04C181.829 18.88 177.189 16.16 170.789 16.16C165.269 16.16 161.269 18.4 158.949 21.2V17.2H152.069V54H158.949V34.48C158.949 26.96 164.469 22.56 170.229 22.56C176.709 22.56 179.829 26.56 179.829 32.56V54H186.709V34.72C186.709 26.96 192.309 22.56 198.069 22.56C204.549 22.56 207.669 26.56 207.669 32.56V54ZM234.282 55.04C239.802 55.04 243.962 52.96 246.442 50V54H253.322V17.2H246.442V36.32C246.442 44.08 240.842 48.64 235.002 48.64C228.522 48.64 225.402 44.4 225.402 38.32V17.2H218.522V38.88C218.522 48.24 224.362 55.04 234.282 55.04ZM291.319 27.6C289.639 21.6 283.719 16.16 272.759 16.16C262.999 16.16 256.919 21.36 256.919 27.84C256.919 34.16 260.839 37.6 268.679 38.32L276.359 38.96C281.399 39.36 284.039 40.56 284.039 43.68C284.039 46.8 280.279 48.64 275.479 48.64C268.999 48.64 264.759 46.8 263.239 43.28H255.719C257.239 49.68 263.879 55.04 274.599 55.04C284.839 55.04 290.919 49.84 290.919 43.52C290.919 36.8 286.519 33.44 278.839 32.8L271.399 32.24C266.519 31.84 263.799 30.72 263.799 27.6C263.799 24.48 267.319 22.56 272.679 22.56C278.199 22.56 282.119 24.08 283.799 27.6H291.319Z" fill="#983F3F"/>
</g>
<defs>
<clipPath id="clip0">
<rect width="292" height="55" fill="white"/>
</clipPath>
</defs>
</svg>
